<svg width="24" height="24" viewBox="0 0 24 24" fill="none" xmlns="http://www.w3.org/2000/svg">
<path d="M11.6609 5.53447H9.31088C9.09838 5.53447 8.92029 5.46214 8.77663 5.31747C8.63279 5.17297 8.56088 4.99381 8.56088 4.77997C8.56088 4.56631 8.63279 4.38864 8.77663 4.24697C8.92029 4.10531 9.09838 4.03447 9.31088 4.03447H11.6609V1.70947C11.6609 1.49697 11.7332 1.31881 11.8779 1.17497C12.0225 1.03131 12.2017 0.959473 12.4154 0.959473C12.629 0.959473 12.8067 1.03131 12.9484 1.17497C13.09 1.31881 13.1609 1.49697 13.1609 1.70947V4.03447H15.4859C15.6984 4.03447 15.8765 4.10672 16.0204 4.25122C16.164 4.39589 16.2359 4.57506 16.2359 4.78872C16.2359 5.00256 16.164 5.18031 16.0204 5.32197C15.8765 5.46364 15.6984 5.53447 15.4859 5.53447H13.1609V7.85947C13.1609 8.07197 13.0886 8.25006 12.9441 8.39372C12.7995 8.53756 12.6203 8.60947 12.4066 8.60947C12.1928 8.60947 12.015 8.53756 11.8734 8.39372C11.7317 8.25006 11.6609 8.07197 11.6609 7.85947V5.53447ZM7.24488 22.066C6.74838 22.066 6.32513 21.8892 5.97513 21.5357C5.62513 21.1822 5.45013 20.7572 5.45013 20.2607C5.45013 19.7642 5.62688 19.341 5.98038 18.991C6.33388 18.641 6.75888 18.466 7.25538 18.466C7.75188 18.466 8.17513 18.6427 8.52513 18.9962C8.87513 19.3499 9.05013 19.7749 9.05013 20.2712C9.05013 20.7677 8.87338 21.191 8.51988 21.541C8.16638 21.891 7.74138 22.066 7.24488 22.066ZM17.3449 22.066C16.8484 22.066 16.4251 21.8892 16.0751 21.5357C15.7251 21.1822 15.5501 20.7572 15.5501 20.2607C15.5501 19.7642 15.7269 19.341 16.0804 18.991C16.4339 18.641 16.8589 18.466 17.3554 18.466C17.8519 18.466 18.2751 18.6427 18.6251 18.9962C18.9751 19.3499 19.1501 19.7749 19.1501 20.2712C19.1501 20.7677 18.9734 21.191 18.6199 21.541C18.2664 21.891 17.8414 22.066 17.3449 22.066ZM3.45838 3.56597H2.30013C2.06896 3.56597 1.87521 3.48747 1.71888 3.33047C1.56254 3.17364 1.48438 2.97914 1.48438 2.74697C1.48438 2.51497 1.56254 2.32156 1.71888 2.16672C1.87521 2.01189 2.06896 1.93447 2.30013 1.93447H3.95113C4.12113 1.93447 4.27629 1.97622 4.41663 2.05972C4.55696 2.14306 4.65871 2.26089 4.72188 2.41322L8.71213 10.9627H15.8941L19.6344 4.44522C19.705 4.32072 19.8034 4.22114 19.9294 4.14647C20.0552 4.07181 20.1939 4.03447 20.3454 4.03447C20.6582 4.03447 20.8919 4.16206 21.0464 4.41722C21.2007 4.67256 21.2052 4.93714 21.0599 5.21097L17.6209 11.6395C17.4295 11.964 17.1836 12.2261 16.8831 12.4257C16.5828 12.6254 16.2501 12.7252 15.8851 12.7252H8.35288L6.99463 15.2595H18.4001C18.6313 15.2595 18.825 15.338 18.9814 15.495C19.1377 15.6518 19.2159 15.8463 19.2159 16.0785C19.2159 16.3105 19.1377 16.5039 18.9814 16.6587C18.825 16.8136 18.6313 16.891 18.4001 16.891H7.10013C6.44446 16.891 5.94679 16.6301 5.60713 16.1082C5.26729 15.5862 5.24504 15.055 5.54038 14.5145L7.12238 11.6002L3.45838 3.56597Z" fill="white"/>
</svg>
