<svg width="24" height="24" viewBox="0 0 24 24" fill="none" xmlns="http://www.w3.org/2000/svg">
<path d="M4.66085 19.1493C4.20101 19.1493 3.80218 18.9804 3.46435 18.6425C3.12651 18.3049 2.9576 17.906 2.9576 17.446V7.12478C2.7091 7.12478 2.5041 7.04253 2.3426 6.87803C2.18093 6.71353 2.1001 6.51061 2.1001 6.26928C2.1001 6.02794 2.18193 5.82536 2.3456 5.66153C2.50926 5.49753 2.71401 5.41553 2.95985 5.41553H6.15435V5.12678C6.15435 4.88694 6.23376 4.68761 6.3926 4.52878C6.55126 4.36994 6.75176 4.29053 6.9941 4.29053H8.8511C9.0891 4.29053 9.28851 4.37103 9.44935 4.53203C9.61035 4.69286 9.69085 4.89228 9.69085 5.13028V5.41553H12.8876C13.1279 5.41553 13.3299 5.49894 13.4936 5.66578C13.6574 5.83261 13.7393 6.03669 13.7393 6.27803C13.7393 6.51936 13.6574 6.72078 13.4936 6.88228C13.3299 7.04394 13.1279 7.12478 12.8876 7.12478V17.446C12.8876 17.906 12.7181 18.3049 12.3791 18.6425C12.0403 18.9804 11.64 19.1493 11.1783 19.1493H4.66085ZM15.8816 18.453C15.6606 18.453 15.4753 18.3781 15.3258 18.2283C15.1765 18.0786 15.1018 17.8911 15.1018 17.6658C15.1018 17.4421 15.1763 17.2564 15.3251 17.1088C15.4741 16.9611 15.6611 16.8873 15.8861 16.8873H18.0101C18.2334 16.8873 18.4207 16.9624 18.5718 17.1128C18.7228 17.2631 18.7983 17.4494 18.7983 17.6718C18.7983 17.8973 18.7228 18.0839 18.5718 18.2315C18.4208 18.3792 18.2338 18.453 18.0106 18.453H15.8816ZM15.8876 13.7873C15.6616 13.7873 15.4741 13.7124 15.3251 13.5625C15.1763 13.4129 15.1018 13.2254 15.1018 13C15.1018 12.7747 15.1763 12.5876 15.3251 12.4388C15.4741 12.2899 15.6616 12.2155 15.8876 12.2155H20.2626C20.4853 12.2155 20.6719 12.2913 20.8226 12.4428C20.9731 12.5943 21.0483 12.7819 21.0483 13.0058C21.0483 13.2331 20.9731 13.4202 20.8226 13.567C20.6719 13.7139 20.4853 13.7873 20.2626 13.7873H15.8876ZM15.8816 9.11553C15.6606 9.11553 15.4753 9.03986 15.3258 8.88853C15.1765 8.73719 15.1018 8.54969 15.1018 8.32603C15.1018 8.10386 15.1765 7.91894 15.3258 7.77128C15.4753 7.62361 15.6606 7.54978 15.8816 7.54978H21.3876C21.6079 7.54978 21.794 7.62494 21.9458 7.77528C22.0975 7.92561 22.1733 8.11194 22.1733 8.33428C22.1733 8.55644 22.0975 8.74219 21.9458 8.89153C21.794 9.04086 21.6079 9.11553 21.3876 9.11553H15.8816ZM4.66085 7.12478V17.446H11.1783V7.12478H4.66085Z" fill="black"/>
</svg>
