<svg width="24" height="24" viewBox="0 0 24 24" fill="none" xmlns="http://www.w3.org/2000/svg">
<path d="M6.47711 21.1493C6.00295 21.1493 5.59953 20.9836 5.26686 20.6521C4.9342 20.3206 4.76786 19.9186 4.76786 19.4461V5.29757H4.49286C4.25236 5.29757 4.05028 5.21532 3.88661 5.05082C3.72295 4.88632 3.64111 4.68323 3.64111 4.44157C3.64111 4.1999 3.72295 3.99832 3.88661 3.83682C4.05028 3.67515 4.25236 3.59432 4.49286 3.59432H8.59811C8.59811 3.34982 8.68003 3.14573 8.84386 2.98207C9.00753 2.81857 9.20953 2.73682 9.44986 2.73682H14.5439C14.7842 2.73682 14.9863 2.81973 15.1501 2.98557C15.3138 3.15157 15.3956 3.35448 15.3956 3.59432H19.5069C19.7474 3.59432 19.9494 3.67657 20.1131 3.84107C20.2768 4.00557 20.3586 4.20865 20.3586 4.45032C20.3586 4.69198 20.2768 4.89365 20.1131 5.05532C19.9494 5.21682 19.7474 5.29757 19.5069 5.29757H19.2319V19.4461C19.2319 19.9186 19.0655 20.3206 18.7329 20.6521C18.4002 20.9836 17.9968 21.1493 17.5226 21.1493H6.47711ZM17.5226 5.29757H6.47711V19.4461H17.5226V5.29757ZM9.90236 17.3438C10.13 17.3438 10.3197 17.2667 10.4714 17.1126C10.623 16.9582 10.6989 16.7694 10.6989 16.5461V8.16657C10.6989 7.94323 10.6213 7.75448 10.4661 7.60032C10.3109 7.44598 10.1211 7.36882 9.89661 7.36882C9.66695 7.36882 9.47628 7.44598 9.32461 7.60032C9.17295 7.75448 9.09711 7.94323 9.09711 8.16657V16.5461C9.09711 16.7694 9.17436 16.9582 9.32886 17.1126C9.48353 17.2667 9.6747 17.3438 9.90236 17.3438ZM14.1104 17.3438C14.3352 17.3438 14.5244 17.2667 14.6781 17.1126C14.8318 16.9582 14.9086 16.7694 14.9086 16.5461V8.16657C14.9086 7.94323 14.8305 7.75448 14.6744 7.60032C14.5182 7.44598 14.3271 7.36882 14.1011 7.36882C13.8749 7.36882 13.685 7.44598 13.5314 7.60032C13.3777 7.75448 13.3009 7.94323 13.3009 8.16657V16.5461C13.3009 16.7694 13.3795 16.9582 13.5369 17.1126C13.6942 17.2667 13.8854 17.3438 14.1104 17.3438Z" fill="black"/>
</svg>
