<svg width="24" height="24" viewBox="0 0 24 24" fill="none" xmlns="http://www.w3.org/2000/svg">
<path d="M6.7023 20.3288C5.84063 20.3288 5.1333 20.0189 4.5803 19.3993C4.02713 18.7794 3.79221 18.0471 3.87555 17.2023H2.3843C2.14396 17.2023 1.94188 17.12 1.77805 16.9555C1.61438 16.7909 1.53255 16.5878 1.53255 16.3463C1.53255 16.1046 1.61438 15.903 1.77805 15.7413C1.94188 15.5798 2.14396 15.499 2.3843 15.499H4.6978C4.9398 15.2309 5.2318 15.0183 5.5738 14.8613C5.9158 14.7041 6.29171 14.6255 6.70155 14.6255C7.11138 14.6255 7.48646 14.7042 7.8268 14.8615C8.16696 15.019 8.46021 15.2315 8.70655 15.499H13.6865L16.0163 5.37453H5.5978C5.3493 5.37453 5.14838 5.29228 4.99505 5.12778C4.84188 4.96328 4.7653 4.76037 4.7653 4.51903C4.7653 4.2777 4.84713 4.07503 5.0108 3.91103C5.17446 3.7472 5.37846 3.66528 5.6228 3.66528H17.0728C17.3381 3.66528 17.5599 3.77403 17.738 3.99153C17.9164 4.2092 17.9785 4.45062 17.9245 4.71578L17.1255 8.14828H19.393C19.6654 8.14828 19.921 8.20745 20.1598 8.32578C20.3988 8.44395 20.599 8.6107 20.7603 8.82603L22.6945 11.4233C22.8455 11.6308 22.9455 11.8456 22.9943 12.0678C23.0431 12.2901 23.0469 12.5228 23.0055 12.7658L22.2625 16.4995C22.2219 16.7012 22.1216 16.8687 21.9618 17.002C21.802 17.1355 21.6203 17.2023 21.4168 17.2023H20.0538C20.1371 18.0508 19.8981 18.784 19.3368 19.402C18.7753 20.0199 18.0638 20.3288 17.2023 20.3288C16.3406 20.3288 15.6333 20.0189 15.0803 19.3993C14.5271 18.7794 14.2922 18.0471 14.3755 17.2023H9.5538C9.63713 18.0508 9.39813 18.784 8.8368 19.402C8.2753 20.0199 7.5638 20.3288 6.7023 20.3288ZM15.9458 13.274H21.1473L21.3093 12.413L19.393 9.85178H16.7305L15.9458 13.274ZM13.8865 14.599L14.049 13.946C14.1574 13.5107 14.2782 12.9744 14.4115 12.337C14.4847 12.0467 14.5486 11.7697 14.6033 11.506C14.658 11.2422 14.712 11.0129 14.7655 10.8183L14.9255 10.166C15.032 9.73103 15.153 9.19453 15.2883 8.55653C15.4236 7.91853 15.5423 7.38087 15.6443 6.94353L15.7973 6.28753L16.0163 5.37453L13.6865 15.499L13.8865 14.599ZM1.48705 13.1885C1.23855 13.1885 1.03763 13.1067 0.884297 12.943C0.730964 12.7794 0.654297 12.5774 0.654297 12.337C0.654297 12.0965 0.73513 11.8945 0.896797 11.7308C1.05846 11.5671 1.26355 11.4853 1.51205 11.4853H5.51805C5.75838 11.4853 5.96038 11.5675 6.12405 11.732C6.28771 11.8967 6.36955 12.0998 6.36955 12.3413C6.36955 12.583 6.28771 12.7846 6.12405 12.9463C5.96038 13.1078 5.75838 13.1885 5.51805 13.1885H1.48705ZM3.48705 9.40703C3.24271 9.40703 3.03863 9.32478 2.8748 9.16028C2.71113 8.99578 2.6293 8.79287 2.6293 8.55153C2.6293 8.31037 2.71113 8.10778 2.8748 7.94378C3.03863 7.77978 3.24271 7.69778 3.48705 7.69778H8.51205C8.75188 7.69778 8.9548 7.7812 9.1208 7.94803C9.28663 8.11503 9.36955 8.31912 9.36955 8.56028C9.36955 8.80162 9.28663 9.00312 9.1208 9.16478C8.9548 9.32628 8.75188 9.40703 8.51205 9.40703H3.48705ZM6.7138 18.6255C7.02646 18.6255 7.29405 18.5104 7.51655 18.28C7.73921 18.0497 7.85055 17.7782 7.85055 17.4655C7.85055 17.153 7.74063 16.8855 7.5208 16.6628C7.3008 16.4401 7.02821 16.3288 6.70305 16.3288C6.39888 16.3288 6.1313 16.4388 5.9003 16.6588C5.6693 16.8786 5.5538 17.1511 5.5538 17.4763C5.5538 17.7806 5.66896 18.0482 5.8993 18.279C6.12963 18.51 6.40113 18.6255 6.7138 18.6255ZM17.2138 18.6255C17.5265 18.6255 17.794 18.5104 18.0165 18.28C18.2392 18.0497 18.3505 17.7782 18.3505 17.4655C18.3505 17.153 18.2406 16.8855 18.0208 16.6628C17.8008 16.4401 17.5282 16.3288 17.203 16.3288C16.8989 16.3288 16.6313 16.4388 16.4003 16.6588C16.1693 16.8786 16.0538 17.1511 16.0538 17.4763C16.0538 17.7806 16.169 18.0482 16.3993 18.279C16.6296 18.51 16.9011 18.6255 17.2138 18.6255Z" fill="black"/>
</svg>
