<svg width="24" height="24" viewBox="0 0 24 24" fill="none" xmlns="http://www.w3.org/2000/svg">
<path d="M4.54784 19.4464H5.65384L17.1491 7.97613L16.0551 6.87613L4.54784 18.3524V19.4464ZM3.70234 21.1496C3.45767 21.1496 3.25459 21.0688 3.09309 20.9071C2.93142 20.7456 2.85059 20.5425 2.85059 20.2979V18.3774C2.85059 18.1494 2.89725 17.9266 2.99059 17.7091C3.08392 17.4915 3.20717 17.306 3.36034 17.1529L17.2136 3.31863C17.3509 3.17729 17.5163 3.06713 17.7096 2.98813C17.9029 2.90913 18.1036 2.86963 18.3116 2.86963C18.5028 2.86963 18.694 2.90913 18.8853 2.98813C19.0767 3.06713 19.2533 3.17529 19.4153 3.31263L20.7126 4.59188C20.8666 4.75388 20.9789 4.93154 21.0496 5.12488C21.1203 5.31821 21.1556 5.51246 21.1556 5.70763C21.1556 5.90296 21.1161 6.10046 21.0371 6.30013C20.9581 6.49979 20.8499 6.6703 20.7126 6.81163L6.85934 20.6399C6.702 20.793 6.51559 20.9163 6.30009 21.0096C6.08459 21.103 5.86284 21.1496 5.63484 21.1496H3.70234ZM16.6051 7.42013L16.0551 6.87613L17.1491 7.97613L16.6051 7.42013Z" fill="black"/>
</svg>
