<svg width="20" height="20" viewBox="0 0 20 20" fill="none" xmlns="http://www.w3.org/2000/svg">
<path d="M9.99559 19.1495C9.75409 19.1495 9.5525 19.0676 9.39084 18.904C9.22917 18.7403 9.14834 18.5382 9.14834 18.2977V10.8575H1.70234C1.46184 10.8575 1.25975 10.7752 1.09609 10.6107C0.932419 10.4462 0.850586 10.2433 0.850586 10.002C0.850586 9.76081 0.932419 9.55823 1.09609 9.39423C1.25975 9.23023 1.46184 9.14823 1.70234 9.14823H9.14259V1.70223C9.14259 1.46223 9.22484 1.25931 9.38934 1.09348C9.55384 0.927481 9.75675 0.844482 9.99809 0.844482C10.2393 0.844482 10.4418 0.927481 10.6058 1.09348C10.7698 1.25931 10.8518 1.46223 10.8518 1.70223V9.14823H18.2978C18.5378 9.14823 18.7408 9.23057 18.9066 9.39523C19.0726 9.55973 19.1556 9.76281 19.1556 10.0045C19.1556 10.246 19.0726 10.4476 18.9066 10.6092C18.7408 10.7709 18.5378 10.8517 18.2978 10.8517H10.8518V18.2977C10.8518 18.5382 10.7695 18.7403 10.6048 18.904C10.4403 19.0676 10.2373 19.1495 9.99559 19.1495Z" fill="white"/>
</svg>
