<svg width="19" height="19" viewBox="0 0 19 19" fill="none" xmlns="http://www.w3.org/2000/svg">
<path d="M7.08068 13.8768C5.25001 13.8768 3.70035 13.2418 2.43168 11.9718C1.16318 10.7018 0.528931 9.16954 0.528931 7.37504C0.528931 5.58054 1.16393 4.04829 2.43393 2.77829C3.70376 1.50829 5.24018 0.873291 7.04318 0.873291C8.84601 0.873291 10.3782 1.50829 11.6397 2.77829C12.9013 4.04829 13.5322 5.58179 13.5322 7.37879C13.5322 8.10096 13.4185 8.79237 13.1912 9.45304C12.9638 10.1137 12.6228 10.7337 12.1682 11.313L18.1822 17.2773C18.3522 17.4438 18.4372 17.6501 18.4372 17.8963C18.4372 18.1426 18.3522 18.3508 18.1822 18.5208C18.0102 18.6946 17.8005 18.7815 17.5532 18.7815C17.306 18.7815 17.1012 18.6946 16.9387 18.5208L10.9497 12.5375C10.4537 12.9585 9.87368 13.287 9.20968 13.5228C8.54568 13.7588 7.83601 13.8768 7.08068 13.8768ZM7.05768 12.1733C8.38651 12.1733 9.51393 11.7046 10.4399 10.7673C11.3659 9.82996 11.8289 8.69921 11.8289 7.37504C11.8289 6.05087 11.3656 4.92012 10.4389 3.98279C9.51243 3.04546 8.38535 2.57679 7.05768 2.57679C5.71618 2.57679 4.57651 3.04546 3.63868 3.98279C2.70101 4.92012 2.23218 6.05087 2.23218 7.37504C2.23218 8.69921 2.70076 9.82996 3.63793 10.7673C4.5751 11.7046 5.71501 12.1733 7.05768 12.1733Z" fill="black"/>
</svg>
